<svg width="32" height="32" viewBox="0 0 32 32" fill="none" xmlns="http://www.w3.org/2000/svg">
<path d="M21.3334 5.33329H24C24.7073 5.33329 25.3856 5.61424 25.8857 6.11434C26.3858 6.61444 26.6667 7.29272 26.6667 7.99996V26.6666C26.6667 27.3739 26.3858 28.0521 25.8857 28.5522C25.3856 29.0523 24.7073 29.3333 24 29.3333H8.00004C7.2928 29.3333 6.61452 29.0523 6.11442 28.5522C5.61433 28.0521 5.33337 27.3739 5.33337 26.6666V7.99996C5.33337 7.29272 5.61433 6.61444 6.11442 6.11434C6.61452 5.61424 7.2928 5.33329 8.00004 5.33329H10.6667M12 2.66663H20C20.7364 2.66663 21.3334 3.26358 21.3334 3.99996V6.66663C21.3334 7.40301 20.7364 7.99996 20 7.99996H12C11.2637 7.99996 10.6667 7.40301 10.6667 6.66663V3.99996C10.6667 3.26358 11.2637 2.66663 12 2.66663Z" stroke="#1E1E1E" stroke-width="3" stroke-linecap="round" stroke-linejoin="round"/>
</svg>
